<svg id="Layer_1" enable-background="new 0 0 511.5 511.5" height="512" viewBox="0 0 511.5 511.5" width="512" xmlns="http://www.w3.org/2000/svg"><g><g><path d="m255.75 464.113c-20.677 0-37.5-16.822-37.5-37.5v-91.018c-21.268-12.137-46.406-32.024-70-55.255v41.16c0 20.678-16.823 37.5-37.5 37.5s-37.5-16.822-37.5-37.5v-139.974c-13.272-26.025-20-50.025-20-71.359 0-60.746 49.421-110.167 110.167-110.167 21.045 0 41.506 5.957 59.171 17.227 13.321 8.498 24.606 19.699 33.162 32.826 8.556-13.127 19.841-24.328 33.162-32.826 17.665-11.27 38.126-17.227 59.171-17.227 60.746 0 110.167 49.421 110.167 110.167 0 35.378-15.553 75.684-45 116.682v85.151c0 20.678-16.822 37.5-37.5 37.5-20.677 0-37.5-16.822-37.5-37.5v-6.162c-15.563 12.586-31.087 23.154-45 30.601v90.175c0 20.677-16.823 37.499-37.5 37.499z" fill="#fe7cb8"/></g><g><path d="m110.75 511.5c-16.542 0-30-13.458-30-30s13.458-30 30-30 30 13.458 30 30-13.458 30-30 30z" fill="#fe7cb8"/></g><path d="m348.083 0c-21.045 0-41.506 5.957-59.171 17.227-13.321 8.498-24.606 19.699-33.162 32.826v414.061c20.677 0 37.5-16.822 37.5-37.5v-90.175c13.914-7.446 29.438-18.015 45-30.601v6.162c0 20.678 16.822 37.5 37.5 37.5s37.5-16.822 37.5-37.5v-85.151c29.447-40.998 45-81.304 45-116.682 0-60.746-49.421-110.167-110.167-110.167z" fill="#ff3a80"/></g></svg>